<?xml version="1.0" encoding="utf-8"?>
<!-- Generator: Adobe Illustrator 16.0.0, SVG Export Plug-In . SVG Version: 6.00 Build 0)  -->
<!DOCTYPE svg PUBLIC "-//W3C//DTD SVG 1.0//EN" "http://www.w3.org/TR/2001/REC-SVG-20010904/DTD/svg10.dtd">
<svg version="1.0" id="Layer_1" xmlns="http://www.w3.org/2000/svg" xmlns:xlink="http://www.w3.org/1999/xlink" x="0px" y="0px"
	 width="100px" height="100px" viewBox="0 0 100 100" enable-background="new 0 0 100 100" xml:space="preserve">
<path fill="#29B6F6" d="M88.984,48.232C88.985,48.232,76.67,20,76.67,20L64.353,48.229c-0.654,1.572-1.021,3.297-1.021,5.104
	c0,7.363,5.973,13.334,13.334,13.334C84.029,66.666,90,60.695,90,53.332C90,51.525,89.635,49.805,88.984,48.232z M76.666,60
	C72.991,60,70,57.008,70,53.332c0-0.879,0.168-1.73,0.508-2.541l6.162-14.122c2.933,6.727,5.881,13.487,6.172,14.151
	c0.324,0.803,0.49,1.646,0.49,2.512C83.332,57.008,80.342,60,76.666,60z"/>
<path fill="#29B6F6" d="M62.57,76.174c0.004,0-9.234-21.174-9.234-21.174l-9.239,21.172c-0.49,1.178-0.764,2.473-0.764,3.828
	c0,5.523,4.48,10,10,10c5.521,0,10-4.477,10-10C63.332,78.645,63.061,77.354,62.57,76.174z M53.332,83.332
	C51.496,83.332,50,81.838,50,80c0-0.438,0.085-0.863,0.25-1.264l3.086-7.066c1.578,3.625,2.896,6.646,3.089,7.09
	c0.16,0.396,0.241,0.813,0.241,1.24C56.666,81.838,55.172,83.332,53.332,83.332z"/>
<path fill="#29B6F6" d="M42.063,45.29C42.065,45.29,26.669,10,26.669,10L11.273,45.286C10.455,47.253,10,49.407,10,51.666
	c0,9.205,7.461,16.666,16.666,16.666c9.207,0,16.667-7.461,16.667-16.666C43.333,49.407,42.876,47.255,42.063,45.29z M26.666,61.666
	c-5.515,0-10-4.486-10-10c0-1.316,0.257-2.604,0.764-3.82l9.24-21.176c4.126,9.458,8.886,20.375,9.251,21.211
	c0.494,1.211,0.744,2.484,0.744,3.786C36.666,57.18,32.181,61.666,26.666,61.666z"/>
</svg>
