<?xml version="1.0" encoding="iso-8859-1"?>
<!-- Generator: Adobe Illustrator 19.0.0, SVG Export Plug-In . SVG Version: 6.00 Build 0)  -->
<svg version="1.1" id="Layer_1" xmlns="http://www.w3.org/2000/svg" xmlns:xlink="http://www.w3.org/1999/xlink" x="0px" y="0px"
	 viewBox="0 0 508.007 508.007" style="enable-background:new 0 0 508.007 508.007;" xml:space="preserve">
<path style="fill:#FFFFFF;" d="M422.503,311.207c0-79-118.2-226-157.7-273c-43.4,72-82.7,113.3-114.7,147.1
	c-39,39.9-62.8,64.8-64.6,123.7c-2.6,97,84.6,172.6,168.5,170.8C346.903,479.807,422.503,404.207,422.503,311.207z"/>
<path style="fill:#56ACE0;" d="M268.103,86.107c-37,55.2-70.9,90.9-97.2,118.6c-16.5,17.4-29,30.6-38.1,43.4h64.8
	c7.8,0,14.1,6.3,14.1,14.1c0,7.8-6.3,14.1-14.1,14.1h-79.1c-2.9,9.5-4.3,20-4.5,32.7h53.5c7.8,0,14.1,6.3,14.1,14.1
	s-6.3,14.1-14.1,14.1h-51c12.2,65,69.3,114.3,137.8,114.3c77.4,0,140.3-62.9,140.3-140.3
	C394.603,262.907,329.103,162.607,268.103,86.107z"/>
<g>
	<path style="fill:#194F82;" d="M273.203,4.707c-6.2-6.8-17.2-6.4-22.8,2.3c-45.7,79.8-87.3,123.6-120.8,158.8
		c-42,44.3-72.4,76.3-72.4,145.4c0,108.5,88.3,196.8,196.8,196.8s196.8-88.3,196.8-196.8
		C450.803,206.207,280.503,12.807,273.203,4.707z M85.503,309.007c1.8-58.9,25.5-83.8,64.6-123.7c32-33.7,71.3-75.1,114.7-147.1
		c39.6,47,157.7,194,157.7,273c0,92.9-75.6,168.5-168.5,168.5C170.103,481.607,82.903,406.007,85.503,309.007z"/>
	<path style="fill:#194F82;" d="M380.203,297.107c-7.8,0-14.1,6.3-14.1,14.1c0,61.8-50.3,112.1-112.1,112.1
		c-7.8,0-14.1,6.3-14.1,14.1c0,7.8,6.3,14.1,14.1,14.1c77.4,0,140.3-62.9,140.3-140.3
		C394.303,303.407,388.003,297.107,380.203,297.107z"/>
</g>
<g>
</g>
<g>
</g>
<g>
</g>
<g>
</g>
<g>
</g>
<g>
</g>
<g>
</g>
<g>
</g>
<g>
</g>
<g>
</g>
<g>
</g>
<g>
</g>
<g>
</g>
<g>
</g>
<g>
</g>
</svg>
